# xmcd
#
# Track frame offsets:
#	150
#	13078
#	24540
#	36805
#	49258
#	61284
#	73577
#	85602
#	97769
#	107892
#	120221
#	134553
#	145777
#	160703
#	171024
#	182558
#	196124
#	210635
#	222880
#	232381
#
# Disc length: 3248 seconds
# Revision: 1
# Processed by: cddbd v1.5.2PL0 Copyright (c) Steve Scherf et al.
# Submitted via: dBpowerAMP V12.0
#
DISCID=100cae14
DTITLE=Elmore James - Elmore James - The Ultimate Collection
DYEAR=1961
DGENRE=Blues
TTITLE0=Dust My Broom
TTITLE1=Knocking At Your Door
TTITLE2=Standing At The Crossroads
TTITLE3=The Sky Is Crying
TTITLE4=Early In The Morning
TTITLE5=Dark And Dreary
TTITLE6=Rock My Baby Right
TTITLE7=Make A Little Love
TTITLE8=Can’t Stop Lovin’
TTITLE9=Sinful Women
TTITLE10=I Believe
TTITLE11=Strange Kinda’ Feeling
TTITLE12=I Held My Baby Last Night
TTITLE13=Hawaiian Boogie
TTITLE14=Make My Dreams Come True
TTITLE15=The 12 Year Old Boy
TTITLE16=Sunny Land
TTITLE17=Late Hours At Midnight
TTITLE18=Bobby’s Rock
TTITLE19=Shake Your Moneymaker
EXTD=
EXTT0=
EXTT1=
EXTT2=
EXTT3=
EXTT4=
EXTT5=
EXTT6=
EXTT7=
EXTT8=
EXTT9=
EXTT10=
EXTT11=
EXTT12=
EXTT13=
EXTT14=
EXTT15=
EXTT16=
EXTT17=
EXTT18=
EXTT19=
PLAYORDER=
